# xmcd
# 
# Track frame offsets:
#   150
#   18525
#   37425
#   53925
#   71250
#   86250
#   99900
#   121350
#   138900
#   159300
#   175725
#   194550
#   210150
#   229800
#   246375
#   263025
#   284325
#   298500
#   311850
#   332025
# 
# Disc length: 4642 seconds
# 
# Revision: 0
# Processed by: cddbd v1.5.1PL2 Copyright (c) Steve Scherf et al.
# Submitted via: Synapstar 1.0 
# 
DISCID=23122014
DTITLE=SHANIA TWAIN - RS RADIO STARZ
DYEAR=1900
DGENRE=Country
TTITLE0=MAN! I FELL LIKE A WOMAN
TTITLE1=ANY MAN OF MINE
TTITLE2=THAT DON'T IMPRESS ME MUCH
TTITLE3=FROM THIS MOMENT ON
TTITLE4=YOU'RE STILL THE ONE
TTITLE5=UP!
TTITLE6=FOREVER AND FORALWAYS
TTITLE7=IF YOU'RE NOT IN IT FOR LOVE
TTITLE8=WHO'S BED HAVE YOUR BOOTS BEEN UNDER
TTITLE9=HONEY I'M HOME
TTITLE10=I'M GONNA GET CHA GOOD
TTITLE11=YOU'VE GOT A WAY
TTITLE12=YOU WIN MY LOVE
TTITLE13=LOVE GETS ME EVERY TIME
TTITLE14=DON'T BE STUPID
TTITLE15=THE WOMAN IN ME
TTITLE16=NO ONE NEEDS TO KNOW
TTITLE17=COME ON OVER
TTITLE18=ROCK THIS COUNTRY
TTITLE19=I'M HOLDIN' ON TO LOVE
EXTD=MediaType: Karaoke CD+G Producer: Radio starz
EXTT0=
EXTT1=
EXTT2=
EXTT3=
EXTT4=
EXTT5=
EXTT6=
EXTT7=
EXTT8=
EXTT9=
EXTT10=
EXTT11=
EXTT12=
EXTT13=
EXTT14=
EXTT15=
EXTT16=
EXTT17=
EXTT18=
EXTT19=
PLAYORDER=
